<svg width="14" height="14" viewBox="0 0 14 14" fill="none" xmlns="http://www.w3.org/2000/svg">
<path d="M7 0C5.61553 0 4.26216 0.410543 3.11101 1.17971C1.95987 1.94888 1.06266 3.04213 0.532846 4.32122C0.00303298 5.6003 -0.13559 7.00776 0.134506 8.36563C0.404603 9.7235 1.07129 10.9708 2.05026 11.9497C3.02922 12.9287 4.2765 13.5954 5.63437 13.8655C6.99224 14.1356 8.3997 13.997 9.67879 13.4672C10.9579 12.9373 12.0511 12.0401 12.8203 10.889C13.5895 9.73785 14 8.38447 14 7C14 5.14348 13.2625 3.36301 11.9497 2.05025C10.637 0.737498 8.85652 0 7 0ZM9.8275 8.415C10.0151 8.60264 10.1206 8.85714 10.1206 9.1225C10.1206 9.38786 10.0151 9.64236 9.8275 9.83C9.63986 10.0176 9.38537 10.1231 9.12 10.1231C8.85464 10.1231 8.60014 10.0176 8.4125 9.83L7 8.415L5.585 9.83C5.39736 10.0176 5.14287 10.1231 4.8775 10.1231C4.61214 10.1231 4.35764 10.0176 4.17 9.83C3.98236 9.64236 3.87695 9.38786 3.87695 9.1225C3.87695 8.85714 3.98236 8.60264 4.17 8.415L5.585 7L4.17 5.585C3.98236 5.39736 3.87695 5.14286 3.87695 4.8775C3.87695 4.61214 3.98236 4.35764 4.17 4.17C4.35764 3.98236 4.61214 3.87694 4.8775 3.87694C5.14287 3.87694 5.39736 3.98236 5.585 4.17L7 5.585L8.415 4.17C8.60264 3.98236 8.85714 3.87694 9.1225 3.87694C9.38787 3.87694 9.64236 3.98236 9.83 4.17C10.0176 4.35764 10.1231 4.61214 10.1231 4.8775C10.1231 5.14286 10.0176 5.39736 9.83 5.585L8.415 7L9.8275 8.415Z" fill="#767676"/>
</svg>
