<svg width="16" height="16" viewBox="0 0 16 16" fill="none" xmlns="http://www.w3.org/2000/svg">
<path fill-rule="evenodd" clip-rule="evenodd" d="M8.00006 9.5999C8.88371 9.5999 9.60006 8.88356 9.60006 7.9999C9.60006 7.11625 8.88371 6.3999 8.00006 6.3999C7.1164 6.3999 6.40006 7.11625 6.40006 7.9999C6.40006 8.88356 7.1164 9.5999 8.00006 9.5999ZM1.6 9.60068C2.48366 9.60068 3.2 8.88434 3.2 8.00068C3.2 7.11702 2.48366 6.40068 1.6 6.40068C0.716344 6.40068 0 7.11702 0 8.00068C0 8.88434 0.716344 9.60068 1.6 9.60068ZM16.0002 7.9999C16.0002 8.88356 15.2838 9.5999 14.4002 9.5999C13.5165 9.5999 12.8002 8.88356 12.8002 7.9999C12.8002 7.11625 13.5165 6.3999 14.4002 6.3999C15.2838 6.3999 16.0002 7.11625 16.0002 7.9999Z" fill="white" fill-opacity="0.01"/>
<mask id="mask0_6_314" style="mask-type:alpha" maskUnits="userSpaceOnUse" x="0" y="6" width="17" height="4">
<path fill-rule="evenodd" clip-rule="evenodd" d="M8.00006 9.5999C8.88371 9.5999 9.60006 8.88356 9.60006 7.9999C9.60006 7.11625 8.88371 6.3999 8.00006 6.3999C7.1164 6.3999 6.40006 7.11625 6.40006 7.9999C6.40006 8.88356 7.1164 9.5999 8.00006 9.5999ZM1.6 9.60068C2.48366 9.60068 3.2 8.88434 3.2 8.00068C3.2 7.11702 2.48366 6.40068 1.6 6.40068C0.716344 6.40068 0 7.11702 0 8.00068C0 8.88434 0.716344 9.60068 1.6 9.60068ZM16.0002 7.9999C16.0002 8.88356 15.2838 9.5999 14.4002 9.5999C13.5165 9.5999 12.8002 8.88356 12.8002 7.9999C12.8002 7.11625 13.5165 6.3999 14.4002 6.3999C15.2838 6.3999 16.0002 7.11625 16.0002 7.9999Z" fill="white"/>
</mask>
<g mask="url(#mask0_6_314)">
<rect x="-0.800415" y="-0.800781" width="17.6" height="17.6" fill="#9EA0A5"/>
</g>
</svg>
